# xmcd
#
# Track frame offsets: 
#        150
#        12285
#        24670
#        35030
#        46365
#        60492
#        74715
#        84592
#        95397
#        107967
#        120020
#        132057
#        138145
#        150580
#        163807
#        176912
#        189650
#        201787
#
# Disc length: 2862 seconds
#
# Revision: 3
# Processed by: cddbd v1.5.2PL0 Copyright (c) Steve Scherf et al.
# Submitted via: ExactAudioCopy v0.99pb5
#
DISCID=f50b2c12
DTITLE=Various Artist - The History Of Country Music - The Sixties - Volume 1
DTITLE=Various Artist - CD 2
DYEAR=1993
DGENRE=Country
TTITLE0=Tammy Wynette - Stand by your man
TTITLE1=Johnny Cash - Folsom prison blues
TTITLE2=Bob Luman - The file
TTITLE3=Eddy Arnold - Turn the world around the other way
TTITLE4=Jim Reeves - This is it
TTITLE5=Charley Pride - (I'm so) afraid of losing you again
TTITLE6=Bob Gallion - Wall to wall love
TTITLE7=Leroy Van Dyke - Walk on by
TTITLE8=Hank Snow - I've been everywhere
TTITLE9=Eddy Arnold - Make the world go away
TTITLE10=Skeeter Davis - The end of the world
TTITLE11=Roy Clark - Yesterday when I was young
TTITLE12=Patsy Cline - Crazy
TTITLE13=Loretta Lynn - Woman of the world (leave my world alone)
TTITLE14=Marty Robbins - Devil woman
TTITLE15=Bill Anderson - Still
TTITLE16=Jack Greene - All the time
TTITLE17=Conway Twitty - Next in line
EXTD=
EXTT0=
EXTT1=
EXTT2=
EXTT3=
EXTT4=
EXTT5=
EXTT6=
EXTT7=
EXTT8=
EXTT9=
EXTT10=
EXTT11=
EXTT12=
EXTT13=
EXTT14=
EXTT15=
EXTT16=
EXTT17=
PLAYORDER=
